:version 1.10
:name ASF
:units
  mass 1
  length 1
  angle deg
:documentation
  ASF file generated by Kaydara
:root
  axis xyz
  order  tx ty tz rx ry rz
  position 0 0 0
  orientation 0 0 0
:bonedata
  begin
    id 1
    name RightUpLegDummy
    direction -1 2.30186e-007 8.31532e-007
    length 4.04083
    axis 0 0 0 xyz
  end
  begin
    id 2
    name RightUpLeg
    direction -0.000919234 -0.999985 0.00544864
    length 17.4221
    axis -3.80308 -0.00076134 -0.0523649 xyz
    dof rx ry rz
  end
  begin
    id 3
    name RightLeg
    direction -0.000919271 -0.999984 -0.00555045
    length 17.1239
    axis 4.00314 0.0181274 -0.183583 xyz
    dof rx ry rz
  end
  begin
    id 4
    name RightFoot
    direction -2.57843e-005 -4.04509e-007 1
    length 6.72091
    axis 8.18909e-005 -0.122003 -0.403008 xyz
    dof rx ry rz
  end
  begin
    id 5
    name RightToes
    direction 0.00116825 -0.014069 0.9999
    length 3.85082
    axis 0.000514414 0.540638 -0.356797 xyz
    dof rx ry rz
  end
  begin
    id 6
    name SpineDummy
    direction 0.0168869 0.966876 -0.254689
    length 6.99894
    axis 0 0 0 xyz
  end
  begin
    id 7
    name Spine
    direction -0.0132008 0.999903 0.00446247
    length 11.1999
    axis -0.00148109 0.00725429 0.756411 xyz
    dof rx ry rz
  end
  begin
    id 8
    name Spine1
    direction 0 0 0
    length 0
    axis -0.000934958 0.0245693 1.46543 xyz
    dof rx ry rz
  end
  begin
    id 9
    name HEadDummy
    direction -0.0255732 0.999672 0.00128215
    length 3.43865
    axis -0.000934958 0.0245693 1.46543 xyz
  end
  begin
    id 10
    name HEad
    direction -0.0472656 0.980052 0.19304
    length 5.12695
    axis -0.000934954 0.0245693 1.46543 xyz
    dof rx ry rz
  end
  begin
    id 11
    name LeftShoulder1Dummy
    direction 0.953098 0.301717 -0.023914
    length 3.68488
    axis -0.000934958 0.0245693 1.46543 xyz
  end
  begin
    id 12
    name LeftShoulder1
    direction 0.962466 0.271167 0.0112566
    length 3.13809
    axis -0.000934958 0.0245693 1.46543 xyz
    dof rx ry rz
  end
  begin
    id 13
    name LeftArm
    direction 0.999943 0.00455037 -0.00961766
    length 11.3419
    axis -23.1648 0.685459 1.22814 xyz
    dof rx ry rz
  end
  begin
    id 14
    name LeftForeArm
    direction 0.999332 0.0131969 0.0340885
    length 8.70632
    axis -9.90633 0.618216 0.0826942 xyz
    dof rx ry rz
  end
  begin
    id 15
    name LeftHand
    direction 0.994373 -0.0366703 0.0993905
    length 5.32135
    axis 0.00675269 0.680415 0.445699 xyz
    dof rx ry rz
  end
  begin
    id 16
    name RightShoulderDummy
    direction -0.967298 0.252589 -0.0230903
    length 3.68488
    axis -0.000934958 0.0245693 1.46543 xyz
  end
  begin
    id 17
    name RightShoulder
    direction -0.975062 0.221602 0.0120823
    length 3.13809
    axis 0.216257 0.0246515 1.45863 xyz
    dof rx ry rz
  end
  begin
    id 18
    name RightArm
    direction -0.99886 -0.00851186 -0.0469687
    length 10.3947
    axis -23.196 0.23503 -0.532632 xyz
    dof rx ry rz
  end
  begin
    id 19
    name RightForeArm
    direction -0.99909 0.00114866 0.0426317
    length 8.68355
    axis -9.91764 -0.134943 0.610517 xyz
    dof rx ry rz
  end
  begin
    id 20
    name RightHand
    direction -0.992888 -0.0489538 0.10852
    length 5.28593
    axis -0.00275396 -0.197403 0.246414 xyz
    dof rx ry rz
  end
  begin
    id 21
    name LeftUpLegDummy
    direction 1 -2.30186e-007 -8.31532e-007
    length 4.04083
    axis 0 0 0 xyz
  end
  begin
    id 22
    name LeftUpLeg
    direction -0.000920097 -1 2.79241e-006
    length 17.4221
    axis -3.48782 0.00143434 -0.0532288 xyz
    dof rx ry rz
  end
  begin
    id 23
    name LeftLeg
    direction -0.000920097 -1 2.7912e-006
    length 17.1239
    axis 3.68162 -0.00806512 -0.0529896 xyz
    dof rx ry rz
  end
  begin
    id 24
    name LeftFoot
    direction -2.57845e-005 -3.987e-007 1
    length 6.72091
    axis 3.02372e-005 -0.00147829 -0.214229 xyz
    dof rx ry rz
  end
  begin
    id 25
    name LeftToes
    direction 0.00813577 -0.00488255 0.999955
    length 3.85048
    axis 3.89895e-005 -0.0014783 -0.214229 xyz
    dof rx ry rz
  end
:hierarchy
  begin
    root RightUpLegDummy SpineDummy LeftUpLegDummy
    RightUpLegDummy RightUpLeg
    RightUpLeg RightLeg
    RightLeg RightFoot
    RightFoot RightToes
    SpineDummy Spine
    Spine Spine1
    Spine1 HEadDummy LeftShoulder1Dummy RightShoulderDummy
    HEadDummy HEad
    LeftShoulder1Dummy LeftShoulder1
    LeftShoulder1 LeftArm
    LeftArm LeftForeArm
    LeftForeArm LeftHand
    RightShoulderDummy RightShoulder
    RightShoulder RightArm
    RightArm RightForeArm
    RightForeArm RightHand
    LeftUpLegDummy LeftUpLeg
    LeftUpLeg LeftLeg
    LeftLeg LeftFoot
    LeftFoot LeftToes
  end

:SAMPLES-PER-SECOND 30
:FULLY-SPECIFIED
:DEGREES
98
root  -33.9182 33.4947 10.4288 -166.866 72.7359 -177.942
RightUpLeg  -3.07637 -5.41122 -1.08735
RightLeg  15.2389 0.846917 0.173058
RightFoot  -11.2171 -0.052331 0.0055555
RightToes  -28.8797 -0.136283 -0.244105
Spine  0.201622 0.420316 1.11772
Spine1  0.395911 1.04968 2.80375
HEad  -62.8337 8.59188 2.36797
LeftShoulder1  -1.94126e-019 -3.10601e-018 -2.51263e-017
LeftArm  -7.09083 18.7031 -76.7031
LeftForeArm  33.4508 -45.2866 -8.95587
LeftHand  -0.331927 -4.10164 4.33522
RightShoulder  -4.96962e-017 0 -2.36833e-017
RightArm  -25.5285 -20.2345 71.9298
RightForeArm  44.6832 53.6542 11.5415
RightHand  -0.327199 0.328191 -6.71108
LeftUpLeg  -40.7278 13.8218 -2.71011
LeftLeg  37.1323 12.2212 7.95539
LeftFoot  5.75632 -0.0763407 1.67991
LeftToes  -27.1896 1.9075e-006 4.29692e-008
99
root  -33.0962 33.1561 10.0022 -168.988 73.4915 179.945
RightUpLeg  -3.99621 -7.27474 -2.63796
RightLeg  20.3399 2.9204 0.871122
RightFoot  -13.8367 -0.131019 -0.554408
RightToes  -31.3067 -0.153022 -0.260945
Spine  0.17841 0.602506 0.357234
Spine1  0.328068 1.41859 1.2831
HEad  -62.2867 8.40549 2.99967
LeftShoulder1  -1.94126e-019 -3.10601e-018 -2.51263e-017
LeftArm  -8.1806 18.241 -72.6852
LeftForeArm  32.6707 -47.4934 -9.83165
LeftHand  -0.362998 -4.07293 4.72773
RightShoulder  -4.96962e-017 0 -2.36833e-017
RightArm  -27.0157 -18.2387 70.3777
RightForeArm  45.7462 60.6117 15.6168
RightHand  -0.317438 0.301396 -6.54048
LeftUpLeg  -39.1433 9.40682 -0.104245
LeftLeg  29.2741 10.7645 5.10747
LeftFoot  9.36534 -0.162733 2.14807
LeftToes  -30.0645 1.9075e-006 4.29692e-008
100
root  -32.2046 32.7192 9.49601 -171.053 74.5468 178.33
RightUpLeg  -6.03703 -11.0943 -4.78769
RightLeg  28.9259 6.38307 2.99261
RightFoot  -15.4923 -0.302471 -1.72099
RightToes  -36.4584 -0.190827 -0.294254
Spine  0.140276 0.61439 -0.47419
Spine1  0.22982 1.41733 -0.355843
HEad  -61.4343 8.66384 3.669
LeftShoulder1  -1.94126e-019 -3.10601e-018 -2.51263e-017
LeftArm  -10.2468 17.9968 -68.2717
LeftForeArm  30.9533 -49.964 -10.9796
LeftHand  -0.41056 -2.96352 5.93975
RightShoulder  -4.96962e-017 0 -2.36833e-017
RightArm  -28.3856 -15.2761 67.6173
RightForeArm  51.6229 67.9962 22.3201
RightHand  -0.332633 0.269779 -6.88658
LeftUpLeg  -38.9683 7.99619 0.415254
LeftLeg  31.6113 11.23 5.88973
LeftFoot  10.4336 -0.214756 2.51334
LeftToes  -21.4663 1.9075e-006 4.29692e-008
101
root  -31.4512 32.4245 9.06671 -175.271 75.113 174.586
RightUpLeg  -10.3322 -14.4031 -7.50486
RightLeg  41.5724 8.0571 6.20024
RightFoot  -12.5642 -0.281152 -2.06819
RightToes  -49.8013 -0.301123 -0.363539
Spine  0.362336 0.359614 -1.45969
Spine1  0.65126 0.864342 -2.27087
HEad  -61.4921 8.98195 3.2523
LeftShoulder1  -1.94126e-019 -3.10601e-018 -2.51263e-017
LeftArm  -13.5343 16.3949 -64.1479
LeftForeArm  28.4904 -50.5349 -11.4159
LeftHand  -0.43472 -1.66539 7.32788
RightShoulder  -4.96962e-017 0 -2.36833e-017
RightArm  -30.4808 -10.9704 64.2609
RightForeArm  63.4825 74.8324 34.7637
RightHand  -0.367889 -0.371423 -8.51836
LeftUpLeg  -40.1918 7.89735 -0.610985
LeftLeg  38.1097 11.258 7.6158
LeftFoot  6.87165 -0.100188 1.83018
LeftToes  -16.1166 1.9075e-006 4.29692e-008
102
root  -30.8526 32.31 8.79107 -177.891 75.0354 171.98
RightUpLeg  -16.7138 -16.792 -9.26478
RightLeg  55.2351 7.42749 9.18605
RightFoot  -4.13315 -0.0435599 -0.724732
RightToes  -58.3467 -0.379005 -0.393734
Spine  0.595953 0.31313 -2.43799
Spine1  1.09662 0.734731 -4.15392
HEad  -62.5221 8.1119 2.27873
LeftShoulder1  -1.94126e-019 -3.10601e-018 -2.51263e-017
LeftArm  -16.8084 13.4124 -60.9909
LeftForeArm  26.5644 -50.1233 -11.3696
LeftHand  -0.438811 -0.257737 9.10886
RightShoulder  -4.96962e-017 0 -2.36833e-017
RightArm  -34.998 -7.20746 60.3416
RightForeArm  87.3163 79.8844 61.7968
RightHand  -0.300051 -1.93503 -9.87485
LeftUpLeg  -39.7829 9.59899 -1.9737
LeftLeg  39.2423 9.98642 7.06078
LeftFoot  4.39136 -0.0367286 1.11949
LeftToes  -13.1961 1.9075e-006 4.29692e-008
103
root  -30.3144 32.3059 8.76628 -170.856 75.4164 178.594
RightUpLeg  -24.128 -17.3904 -7.37468
RightLeg  65.9334 5.35688 9.93785
RightFoot  5.80219 -0.0410474 1.27807
RightToes  -51.9268 -0.320061 -0.37213
Spine  0.55393 0.70557 -2.63363
Spine1  0.950887 1.57647 -4.61404
HEad  -62.891 7.05206 1.25604
LeftShoulder1  -1.94126e-019 -3.10601e-018 -2.51263e-017
LeftArm  -19.9578 10.6292 -59.2281
LeftForeArm  25.8938 -50.9924 -11.8209
LeftHand  -0.403857 0.88461 10.3966
RightShoulder  -4.96962e-017 0 -2.36833e-017
RightArm  -40.8359 -3.87694 55.6839
RightForeArm  116.016 80.8937 94.0974
RightHand  -0.151271 -4.04669 -11.9117
LeftUpLeg  -40.2617 9.02563 0.236711
LeftLeg  40.9392 10.6541 7.99801
LeftFoot  3.10196 -0.0201093 0.90424
LeftToes  -15.4369 1.9075e-006 4.29692e-008
104
root  -29.7632 32.5939 8.89252 -165.677 73.4445 -176.347
RightUpLeg  -28.5621 -19.7162 -4.99636
RightLeg  70.3643 3.00616 6.76206
RightFoot  7.00351 -0.0352395 1.06572
RightToes  -41.8978 -0.233819 -0.32559
Spine  0.665914 0.515188 -2.68237
Spine1  1.11042 1.24537 -4.76379
HEad  -62.2998 5.77865 0.672199
LeftShoulder1  -1.94126e-019 -3.10601e-018 -2.51263e-017
LeftArm  -23.382 7.95154 -59.3659
LeftForeArm  25.8782 -50.9251 -11.7818
LeftHand  -0.40092 1.57298 12.1111
RightShoulder  -4.96962e-017 0 -2.36833e-017
RightArm  -46.758 -0.507804 52.066
RightForeArm  135.498 79.9124 115.222
RightHand  0.0530119 -5.94134 -14.7043
LeftUpLeg  -39.4925 7.00808 2.48359
LeftLeg  40.0973 10.9032 7.93695
LeftFoot  3.68577 -0.0286744 1.05273
LeftToes  -16.3091 1.9075e-006 4.29692e-008
105
root  -29.1741 33.0511 9.09028 -162.781 70.0502 -173.54
RightUpLeg  -30.8202 -23.3642 -2.80328
RightLeg  70.0875 1.31671 2.8366
RightFoot  5.26093 0.00346754 0.473888
RightToes  -42.9759 -0.242682 -0.331308
Spine  0.830034 0.14391 -2.68479
Spine1  1.41576 0.506715 -4.78324
HEad  -61.405 4.08005 1.05991
LeftShoulder1  -1.94126e-019 -3.10601e-018 -2.51263e-017
LeftArm  -26.7741 6.3085 -61.2455
LeftForeArm  24.9513 -52.271 -12.5007
LeftHand  -0.389065 1.83704 12.5959
RightShoulder  -4.96962e-017 0 -2.36833e-017
RightArm  -53.2876 2.61707 49.8517
RightForeArm  145.803 78.612 126.627
RightHand  0.201304 -6.88354 -16.8866
LeftUpLeg  -37.5063 4.96491 4.40658
LeftLeg  36.254 10.4668 6.61427
LeftFoot  5.06929 -0.0492682 1.2745
LeftToes  -17.1576 1.9075e-006 4.29692e-008
106
root  -28.5179 33.528 9.37059 -159.901 66.8275 -170.826
RightUpLeg  -31.5773 -26.0571 -0.664953
RightLeg  65.8014 0.597427 0.997309
RightFoot  5.99408 0.0145039 0.317424
RightToes  -42.3526 -0.237544 -0.328896
Spine  0.796497 0.170309 -2.61698
Spine1  1.32143 0.577377 -4.69684
HEad  -60.2049 1.81272 2.10568
LeftShoulder1  -1.94126e-019 -3.10601e-018 -2.51263e-017
LeftArm  -28.1063 5.88313 -64.0836
LeftForeArm  24.1566 -54.6373 -13.8322
LeftHand  -0.392348 1.9038 12.9415
RightShoulder  -4.96962e-017 0 -2.36833e-017
RightArm  -59.2 4.97102 49.0934
RightForeArm  152.737 77.2474 134.276
RightHand  0.391067 -7.80989 -19.3661
LeftUpLeg  -35.3379 3.41145 6.7234
LeftLeg  31.6474 9.83421 5.17682
LeftFoot  6.98439 -0.0833587 1.52744
LeftToes  -19.3687 1.9075e-006 4.29692e-008
107
root  -27.9049 33.947 9.61628 -159.105 63.9359 -170.409
RightUpLeg  -30.8295 -27.6019 -0.146289
RightLeg  58.1277 0.590182 0.744426
RightFoot  8.8099 0.0146519 0.334204
RightToes  -42.0596 -0.235142 -0.323211
Spine  0.737709 0.302616 -2.71531
Spine1  1.18352 0.854736 -4.9225
HEad  -59.5897 -0.583937 3.38286
LeftShoulder1  -1.94126e-019 -3.10601e-018 -2.51263e-017
LeftArm  -27.7478 5.98378 -67.086
LeftForeArm  23.8143 -56.522 -15.0017
LeftHand  -0.389802 1.81683 12.5505
RightShoulder  -4.96962e-017 0 -2.36833e-017
RightArm  -63.905 8.51714 50.0799
RightForeArm  158.118 76.0872 139.28
RightHand  0.597009 -8.53638 -22.243
LeftUpLeg  -33.3171 1.89856 8.23043
LeftLeg  26.9675 9.08032 3.88163
LeftFoot  9.22182 -0.1287 1.75723
LeftToes  -20.7878 1.9075e-006 4.29692e-008
108
root  -27.3094 34.1817 9.87022 -158.729 61.2777 -170.503
RightUpLeg  -28.647 -27.9899 -0.639089
RightLeg  47.8291 0.608592 0.548435
RightFoot  10.0718 0.015507 0.336109
RightToes  -40.6918 -0.224033 -0.318997
Spine  0.629004 0.642809 -2.75503
Spine1  0.925729 1.56457 -5.03783
HEad  -59.7702 -3.25129 4.27326
LeftShoulder1  -1.94126e-019 -3.10601e-018 -2.51263e-017
LeftArm  -25.1956 6.95379 -69.7482
LeftForeArm  23.9606 -58.3798 -16.2454
LeftHand  -0.353502 1.76317 11.1959
RightShoulder  -4.96962e-017 0 -2.36833e-017
RightArm  -66.7419 13.4073 52.2161
RightForeArm  161.31 75.6726 141.096
RightHand  0.879291 -9.19293 -26.5723
LeftUpLeg  -32.0591 0.163195 9.60201
LeftLeg  23.5694 8.54528 3.07343
LeftFoot  10.8263 -0.163201 1.88367
LeftToes  -21.8524 1.9075e-006 4.29692e-008
109
root  -26.7603 34.1857 10.1024 -159.096 59.0374 -171.512
RightUpLeg  -25.6258 -27.5285 -2.41485
RightLeg  36.133 -0.0870501 -0.0731816
RightFoot  8.33057 0.0243639 0.196443
RightToes  -40.7478 -0.224484 -0.319307
Spine  0.505162 1.3003 -2.79642
Spine1  0.613888 2.94148 -5.17574
HEad  -60.772 -6.38466 4.73853
LeftShoulder1  -1.94126e-019 -3.10601e-018 -2.51263e-017
LeftArm  -21.0141 7.6058 -72.151
LeftForeArm  24.5936 -58.4773 -16.2548
LeftHand  -0.416291 0.709301 10.3335
RightShoulder  -4.96962e-017 0 -2.36833e-017
RightArm  -67.6637 19.797 55.1682
RightForeArm  159.157 76.5446 138.101
RightHand  1.19835 -9.70922 -31.3649
LeftUpLeg  -31.7921 -1.72971 10.4707
LeftLeg  21.9449 8.63155 2.8322
LeftFoot  11.3275 -0.17993 1.97566
LeftToes  -23.7407 1.9075e-006 4.29692e-008
110
root  -26.2496 34.0575 10.3423 -160.604 57.1637 -173.527
RightUpLeg  -21.9427 -25.9698 -5.56557
RightLeg  24.8696 -0.887271 -0.349099
RightFoot  6.98153 0.0254342 0.116251
RightToes  -36.4304 -0.190614 -0.294083
Spine  0.532943 2.30403 -2.87722
Spine1  0.550891 5.03163 -5.38139
HEad  -61.95 -10.0371 5.22811
LeftShoulder1  -1.94126e-019 -3.10601e-018 -2.51263e-017
LeftArm  -17.5525 7.43646 -74.7174
LeftForeArm  24.1059 -56.3873 -14.8892
LeftHand  -0.453638 -0.861138 8.55432
RightShoulder  -4.96962e-017 0 -2.36833e-017
RightArm  -66.4785 27.0004 59.0108
RightForeArm  144.29 79.4658 121.466
RightHand  1.3161 -9.41964 -36.3672
LeftUpLeg  -31.9646 -2.48278 10.3655
LeftLeg  21.6902 7.67281 2.48214
LeftFoot  11.0894 -0.154523 1.7532
LeftToes  -25.2714 1.9075e-006 4.29692e-008
111
root  -25.7471 33.8842 10.6531 -162.31 55.1659 -175.662
RightUpLeg  -18.1625 -22.6983 -9.27645
RightLeg  15.6046 -2.52981 -0.533883
RightFoot  6.16008 0.0307731 -0.0317344
RightToes  -34.132 -0.173385 -0.279634
Spine  0.675135 3.5089 -3.14518
Spine1  0.711164 7.513 -5.92719
HEad  -63.6423 -14.3497 7.42809
LeftShoulder1  -1.94126e-019 -3.10601e-018 -2.51263e-017
LeftArm  -15.5598 6.72858 -76.7147
LeftForeArm  23.5611 -54.0267 -13.5429
LeftHand  -0.409946 -1.888 6.72478
RightShoulder  -4.96962e-017 0 -2.36833e-017
RightArm  -63.8151 32.3478 63.8422
RightForeArm  87.7317 79.892 60.9221
RightHand  1.5794 -9.31565 -43.7869
LeftUpLeg  -32.8349 -2.35148 9.94056
LeftLeg  22.7538 5.72593 1.97224
LeftFoot  10.6899 -0.109831 1.33542
LeftToes  -26.9913 1.9075e-006 4.29692e-008
112
root  -25.2372 33.6887 11.0337 -163.578 52.4946 -177.117
RightUpLeg  -14.7441 -19.141 -12.3981
RightLeg  10.0377 -4.00647 -0.444338
RightFoot  5.21288 0.0307236 -0.128527
RightToes  -29.4288 -0.140008 -0.247977
Spine  0.771578 4.28761 -3.45496
Spine1  0.916715 9.02197 -6.45283
HEad  -66.1167 -17.8821 11.0771
LeftShoulder1  -1.94126e-019 -3.10601e-018 -2.51263e-017
LeftArm  -15.2398 6.97541 -77.3067
LeftForeArm  24.8797 -53.9468 -13.3892
LeftHand  -0.458284 -2.0074 7.3844
RightShoulder  -4.96962e-017 0 -2.36833e-017
RightArm  -59.4989 34.9273 67.7631
RightForeArm  48.186 64.5236 18.6952
RightHand  1.96999 -10.1575 -44.8578
LeftUpLeg  -34.1729 -1.94032 9.82193
LeftLeg  24.5111 3.13149 1.18699
LeftFoot  10.2861 -0.0581214 0.80727
LeftToes  -29.6552 1.9075e-006 4.29692e-008
